<?xml version="1.0" encoding="UTF-8"?>
<svg xmlns="http://www.w3.org/2000/svg" xmlns:xlink="http://www.w3.org/1999/xlink" width="38px" height="38px" viewBox="0 0 38 38" version="1.1">
<g id="surface1">
<path style=" stroke:none;fill-rule:nonzero;fill:rgb(0%,0%,0%);fill-opacity:1;" d="M 14.195312 18.511719 C 13.808594 18.71875 13.757812 18.9375 13.757812 20.367188 C 13.757812 21.804688 13.808594 22.023438 14.210938 22.230469 C 14.667969 22.464844 15.253906 22.304688 15.464844 21.886719 C 15.632812 21.570312 15.632812 19.167969 15.464844 18.847656 C 15.253906 18.429688 14.636719 18.269531 14.195312 18.511719 Z M 14.886719 19.03125 C 14.949219 19.097656 14.972656 19.53125 14.957031 20.40625 C 14.933594 21.523438 14.917969 21.691406 14.804688 21.765625 C 14.707031 21.828125 14.628906 21.828125 14.539062 21.765625 C 14.417969 21.691406 14.402344 21.523438 14.378906 20.40625 C 14.355469 19.089844 14.394531 18.925781 14.667969 18.925781 C 14.742188 18.925781 14.84375 18.96875 14.886719 19.03125 Z M 14.886719 19.03125 "/>
<path style=" stroke:none;fill-rule:nonzero;fill:rgb(0%,0%,0%);fill-opacity:1;" d="M 27.238281 18.46875 C 27.148438 18.5 27.003906 18.628906 26.910156 18.742188 C 26.757812 18.929688 26.753906 19.03125 26.753906 20.375 L 26.753906 21.8125 L 26.972656 22.054688 C 27.175781 22.28125 27.238281 22.304688 27.640625 22.3125 C 27.882812 22.3125 28.15625 22.359375 28.25 22.40625 C 28.546875 22.5625 28.652344 22.519531 28.652344 22.238281 C 28.652344 22.078125 28.605469 21.964844 28.539062 21.933594 C 28.445312 21.902344 28.4375 21.851562 28.5 21.699219 C 28.597656 21.433594 28.597656 19.34375 28.492188 18.976562 C 28.363281 18.507812 27.753906 18.253906 27.238281 18.46875 Z M 27.847656 19.046875 C 27.945312 19.144531 27.96875 19.371094 27.96875 20.367188 C 27.96875 21.363281 27.945312 21.589844 27.847656 21.691406 C 27.703125 21.835938 27.574219 21.84375 27.453125 21.722656 C 27.320312 21.589844 27.320312 19.144531 27.453125 19.015625 C 27.574219 18.894531 27.703125 18.902344 27.847656 19.046875 Z M 27.847656 19.046875 "/>
<path style=" stroke:none;fill-rule:nonzero;fill:rgb(0%,0%,0%);fill-opacity:1;" d="M 5.242188 20.367188 L 5.242188 22.269531 L 5.851562 22.269531 L 5.851562 20.824219 L 6.195312 20.824219 C 6.460938 20.824219 6.589844 20.777344 6.773438 20.609375 C 7 20.40625 7.015625 20.351562 7.046875 19.789062 C 7.066406 19.320312 7.046875 19.136719 6.9375 18.925781 C 6.75 18.566406 6.519531 18.46875 5.835938 18.46875 L 5.242188 18.46875 Z M 6.367188 19.089844 C 6.421875 19.144531 6.460938 19.386719 6.460938 19.644531 C 6.460938 20.164062 6.382812 20.292969 6.066406 20.292969 L 5.851562 20.292969 L 5.851562 19 L 6.066406 19 C 6.179688 19 6.316406 19.039062 6.367188 19.089844 Z M 6.367188 19.089844 "/>
<path style=" stroke:none;fill-rule:nonzero;fill:rgb(0%,0%,0%);fill-opacity:1;" d="M 7.371094 20.367188 L 7.371094 22.269531 L 8.96875 22.269531 L 8.96875 21.734375 L 7.980469 21.734375 L 7.980469 20.597656 L 8.738281 20.597656 L 8.738281 20.0625 L 7.980469 20.0625 L 7.980469 19 L 8.96875 19 L 8.96875 18.46875 L 7.371094 18.46875 Z M 7.371094 20.367188 "/>
<path style=" stroke:none;fill-rule:nonzero;fill:rgb(0%,0%,0%);fill-opacity:1;" d="M 9.347656 20.367188 L 9.347656 22.269531 L 9.957031 22.269531 C 11.097656 22.269531 11.171875 22.152344 11.171875 20.375 C 11.171875 19.53125 11.140625 19.015625 11.082031 18.886719 C 10.945312 18.574219 10.648438 18.46875 9.957031 18.46875 L 9.347656 18.46875 Z M 10.488281 19.074219 C 10.578125 19.136719 10.601562 19.363281 10.601562 20.367188 C 10.601562 21.699219 10.585938 21.734375 10.167969 21.734375 L 9.957031 21.734375 L 9.957031 19 L 10.167969 19 C 10.28125 19 10.425781 19.039062 10.488281 19.074219 Z M 10.488281 19.074219 "/>
<path style=" stroke:none;fill-rule:nonzero;fill:rgb(0%,0%,0%);fill-opacity:1;" d="M 11.628906 20.359375 L 11.628906 22.269531 L 12.234375 22.269531 L 12.234375 21.46875 C 12.234375 20.617188 12.265625 20.558594 12.625 20.746094 C 12.746094 20.816406 12.769531 20.914062 12.769531 21.308594 C 12.769531 21.578125 12.789062 21.902344 12.8125 22.03125 C 12.859375 22.246094 12.890625 22.269531 13.140625 22.269531 L 13.421875 22.269531 L 13.390625 21.523438 C 13.367188 20.945312 13.332031 20.742188 13.214844 20.574219 C 13.0625 20.367188 13.0625 20.359375 13.214844 20.164062 C 13.460938 19.859375 13.445312 19.007812 13.195312 18.71875 C 13.019531 18.519531 12.964844 18.507812 12.320312 18.484375 L 11.628906 18.453125 Z M 12.675781 19.089844 C 12.730469 19.144531 12.769531 19.355469 12.769531 19.570312 C 12.769531 19.996094 12.675781 20.140625 12.410156 20.140625 C 12.242188 20.140625 12.234375 20.117188 12.234375 19.570312 C 12.234375 19.023438 12.242188 19 12.410156 19 C 12.507812 19 12.625 19.039062 12.675781 19.089844 Z M 12.675781 19.089844 "/>
<path style=" stroke:none;fill-rule:nonzero;fill:rgb(0%,0%,0%);fill-opacity:1;" d="M 16.796875 20.367188 L 16.796875 22.269531 L 17.402344 22.269531 L 17.402344 20.671875 L 18.089844 20.671875 L 18.089844 22.269531 L 18.695312 22.269531 L 18.695312 18.46875 L 18.089844 18.46875 L 18.089844 20.140625 L 17.402344 20.140625 L 17.402344 18.46875 L 16.796875 18.46875 Z M 16.796875 20.367188 "/>
<path style=" stroke:none;fill-rule:nonzero;fill:rgb(0%,0%,0%);fill-opacity:1;" d="M 19.152344 20.367188 L 19.152344 22.269531 L 20.824219 22.269531 L 20.824219 21.734375 L 19.761719 21.734375 L 19.761719 20.597656 L 20.597656 20.597656 L 20.597656 20.0625 L 19.761719 20.0625 L 19.761719 19 L 20.824219 19 L 20.824219 18.46875 L 19.152344 18.46875 Z M 19.152344 20.367188 "/>
<path style=" stroke:none;fill-rule:nonzero;fill:rgb(0%,0%,0%);fill-opacity:1;" d="M 21.203125 20.367188 L 21.203125 22.269531 L 21.734375 22.269531 L 21.742188 20.914062 L 21.742188 19.570312 L 22.109375 20.898438 L 22.472656 22.230469 L 22.785156 22.253906 L 23.105469 22.277344 L 23.105469 18.46875 L 22.578125 18.46875 L 22.558594 19.585938 L 22.535156 20.695312 L 22.238281 19.585938 L 21.941406 18.46875 L 21.203125 18.46875 Z M 21.203125 20.367188 "/>
<path style=" stroke:none;fill-rule:nonzero;fill:rgb(0%,0%,0%);fill-opacity:1;" d="M 23.558594 20.359375 L 23.558594 22.269531 L 24.167969 22.269531 L 24.167969 21.46875 C 24.167969 20.617188 24.199219 20.558594 24.554688 20.746094 C 24.675781 20.816406 24.699219 20.914062 24.699219 21.308594 C 24.699219 21.578125 24.722656 21.902344 24.746094 22.03125 C 24.792969 22.246094 24.820312 22.269531 25.074219 22.269531 L 25.355469 22.269531 L 25.324219 21.523438 C 25.300781 20.945312 25.261719 20.742188 25.148438 20.574219 C 24.996094 20.367188 24.996094 20.359375 25.148438 20.164062 C 25.390625 19.859375 25.375 19.007812 25.125 18.71875 C 24.949219 18.519531 24.898438 18.507812 24.25 18.484375 L 23.558594 18.453125 Z M 24.609375 19.089844 C 24.730469 19.210938 24.730469 19.925781 24.609375 20.046875 C 24.554688 20.101562 24.441406 20.140625 24.34375 20.140625 C 24.175781 20.140625 24.167969 20.117188 24.167969 19.570312 C 24.167969 19.023438 24.175781 19 24.34375 19 C 24.441406 19 24.554688 19.039062 24.609375 19.089844 Z M 24.609375 19.089844 "/>
<path style=" stroke:none;fill-rule:nonzero;fill:rgb(0%,0%,0%);fill-opacity:1;" d="M 25.765625 20.367188 L 25.765625 22.269531 L 26.371094 22.269531 L 26.371094 18.46875 L 25.765625 18.46875 Z M 25.765625 20.367188 "/>
<path style=" stroke:none;fill-rule:nonzero;fill:rgb(0%,0%,0%);fill-opacity:1;" d="M 28.957031 20.140625 L 28.957031 21.8125 L 29.167969 22.039062 C 29.546875 22.472656 30.398438 22.398438 30.621094 21.917969 C 30.671875 21.796875 30.703125 21.160156 30.703125 20.101562 L 30.703125 18.46875 L 30.171875 18.46875 L 30.171875 20.019531 C 30.171875 21.332031 30.15625 21.589844 30.050781 21.691406 C 29.988281 21.757812 29.890625 21.8125 29.835938 21.8125 C 29.59375 21.8125 29.5625 21.636719 29.5625 20.046875 L 29.5625 18.46875 L 28.957031 18.46875 Z M 28.957031 20.140625 "/>
<path style=" stroke:none;fill-rule:nonzero;fill:rgb(0%,0%,0%);fill-opacity:1;" d="M 31.160156 20.367188 L 31.160156 22.269531 L 32.757812 22.269531 L 32.757812 21.734375 L 31.769531 21.734375 L 31.769531 20.597656 L 32.605469 20.597656 L 32.605469 20.0625 L 31.769531 20.0625 L 31.769531 19 L 32.757812 19 L 32.757812 18.46875 L 31.160156 18.46875 Z M 31.160156 20.367188 "/>
</g>
</svg>
