<?xml version="1.0" encoding="UTF-8"?>
<svg xmlns="http://www.w3.org/2000/svg" xmlns:xlink="http://www.w3.org/1999/xlink" width="104px" height="104px" viewBox="0 0 104 104" version="1.1">
<g id="surface1">
<path style=" stroke:none;fill-rule:nonzero;fill:rgb(0%,0%,0%);fill-opacity:1;" d="M 38.9375 50.648438 C 37.835938 51.125 37.648438 51.875 37.648438 55.785156 C 37.648438 59.839844 37.835938 60.445312 39.269531 60.945312 C 40.519531 61.359375 41.765625 60.945312 42.265625 59.902344 C 42.765625 58.925781 42.804688 52.8125 42.328125 51.667969 C 41.847656 50.503906 40.351562 50.042969 38.9375 50.648438 Z M 40.746094 52.082031 C 40.914062 52.269531 40.976562 53.457031 40.933594 55.847656 C 40.871094 58.90625 40.832031 59.363281 40.519531 59.570312 C 40.246094 59.738281 40.039062 59.738281 39.789062 59.570312 C 39.457031 59.363281 39.414062 58.90625 39.355469 55.847656 C 39.292969 52.25 39.394531 51.792969 40.144531 51.792969 C 40.351562 51.792969 40.621094 51.917969 40.746094 52.082031 Z M 40.746094 52.082031 "/>
<path style=" stroke:none;fill-rule:nonzero;fill:rgb(0%,0%,0%);fill-opacity:1;" d="M 74.527344 50.648438 C 73.363281 51.148438 73.214844 51.75 73.214844 55.785156 C 73.214844 58.96875 73.257812 59.46875 73.609375 60.027344 C 74.089844 60.796875 75.210938 61.257812 76.191406 61.070312 C 76.605469 61.007812 77 61.070312 77.25 61.257812 C 77.980469 61.816406 78.414062 61.652344 78.414062 60.839844 C 78.414062 60.339844 78.3125 60.113281 78.105469 60.113281 C 77.875 60.113281 77.832031 59.964844 77.957031 59.425781 C 78.042969 59.070312 78.105469 57.304688 78.105469 55.535156 C 78.105469 51.855469 77.9375 51.167969 76.855469 50.667969 C 76.023438 50.273438 75.398438 50.253906 74.527344 50.648438 Z M 76.292969 52.042969 C 76.460938 52.207031 76.542969 53.332031 76.542969 55.765625 C 76.542969 59.53125 76.441406 59.863281 75.421875 59.613281 C 75.003906 59.507812 74.878906 59.320312 74.777344 58.59375 C 74.546875 57.035156 74.734375 52.519531 75.066406 52.144531 C 75.398438 51.730469 75.941406 51.6875 76.292969 52.042969 Z M 76.292969 52.042969 "/>
<path style=" stroke:none;fill-rule:nonzero;fill:rgb(0%,0%,0%);fill-opacity:1;" d="M 14.558594 55.742188 L 14.558594 60.945312 L 16.015625 60.945312 L 16.015625 57.054688 L 17.054688 56.949219 C 17.636719 56.886719 18.28125 56.679688 18.511719 56.472656 C 19.300781 55.765625 19.59375 53.496094 19.074219 52 C 18.71875 51 17.761719 50.542969 15.972656 50.542969 L 14.558594 50.542969 Z M 17.429688 52.25 C 17.574219 52.394531 17.679688 53.0625 17.679688 53.769531 C 17.679688 55.183594 17.472656 55.535156 16.597656 55.535156 L 16.015625 55.535156 L 16.015625 52 L 16.597656 52 C 16.910156 52 17.285156 52.105469 17.429688 52.25 Z M 17.429688 52.25 "/>
<path style=" stroke:none;fill-rule:nonzero;fill:rgb(0%,0%,0%);fill-opacity:1;" d="M 20.175781 55.742188 L 20.175781 60.945312 L 24.542969 60.945312 L 24.542969 59.488281 L 21.632812 59.488281 L 21.632812 56.367188 L 23.921875 56.367188 L 23.921875 54.910156 L 21.632812 54.910156 L 21.632812 52 L 24.542969 52 L 24.542969 50.542969 L 20.175781 50.542969 Z M 20.175781 55.742188 "/>
<path style=" stroke:none;fill-rule:nonzero;fill:rgb(0%,0%,0%);fill-opacity:1;" d="M 25.585938 55.742188 L 25.585938 60.945312 L 27.164062 60.945312 C 28.972656 60.945312 29.972656 60.570312 30.347656 59.777344 C 30.660156 59.070312 30.660156 52.414062 30.347656 51.707031 C 29.972656 50.917969 28.972656 50.542969 27.164062 50.542969 L 25.585938 50.542969 Z M 28.910156 52.394531 C 29.015625 52.625 29.121094 54.121094 29.121094 55.742188 C 29.121094 57.367188 29.015625 58.863281 28.910156 59.09375 C 28.746094 59.363281 28.476562 59.488281 27.976562 59.488281 L 27.246094 59.488281 L 27.246094 52 L 27.976562 52 C 28.476562 52 28.746094 52.125 28.910156 52.394531 Z M 28.910156 52.394531 "/>
<path style=" stroke:none;fill-rule:nonzero;fill:rgb(0%,0%,0%);fill-opacity:1;" d="M 31.824219 55.742188 L 31.824219 60.945312 L 33.28125 60.945312 L 33.28125 56.554688 L 33.945312 56.617188 C 34.859375 56.699219 35.152344 57.34375 35.152344 59.320312 L 35.152344 60.945312 L 36.710938 60.945312 L 36.648438 59.320312 C 36.566406 57.035156 36.441406 56.390625 35.984375 56.117188 C 35.589844 55.867188 35.589844 55.847656 36.027344 55.371094 C 36.378906 55.015625 36.503906 54.578125 36.566406 53.601562 C 36.710938 51.210938 36.003906 50.542969 33.28125 50.542969 L 31.824219 50.542969 Z M 34.734375 52.207031 C 34.945312 52.332031 35.046875 52.75 35.046875 53.558594 C 35.046875 54.828125 34.839844 55.121094 33.863281 55.121094 L 33.28125 55.121094 L 33.28125 52 L 33.863281 52 C 34.175781 52 34.570312 52.105469 34.734375 52.207031 Z M 34.734375 52.207031 "/>
<path style=" stroke:none;fill-rule:nonzero;fill:rgb(0%,0%,0%);fill-opacity:1;" d="M 46.175781 55.742188 L 46.175781 60.945312 L 47.632812 60.945312 L 47.632812 56.574219 L 49.710938 56.574219 L 49.710938 60.945312 L 51.167969 60.945312 L 51.167969 50.542969 L 50.441406 50.542969 C 49.835938 50.542969 49.710938 50.628906 49.691406 51 C 49.691406 51.273438 49.671875 52.269531 49.648438 53.246094 L 49.609375 55.015625 L 48.628906 55.078125 L 47.632812 55.140625 L 47.632812 50.542969 L 46.175781 50.542969 Z M 46.175781 55.742188 "/>
<path style=" stroke:none;fill-rule:nonzero;fill:rgb(0%,0%,0%);fill-opacity:1;" d="M 52.625 55.742188 L 52.625 60.945312 L 56.992188 60.945312 L 56.992188 59.488281 L 54.078125 59.488281 L 54.078125 56.367188 L 56.367188 56.367188 L 56.367188 54.910156 L 54.078125 54.910156 L 54.078125 52 L 56.992188 52 L 56.992188 50.542969 L 52.625 50.542969 Z M 52.625 55.742188 "/>
<path style=" stroke:none;fill-rule:nonzero;fill:rgb(0%,0%,0%);fill-opacity:1;" d="M 58.03125 55.742188 L 58.03125 60.945312 L 59.488281 60.945312 L 59.53125 57.242188 L 59.59375 53.558594 L 60.277344 56.160156 C 61.671875 61.339844 61.484375 60.945312 62.421875 60.945312 L 63.230469 60.945312 L 63.230469 50.542969 L 61.796875 50.542969 L 61.734375 53.601562 L 61.671875 56.679688 L 60.839844 53.601562 L 60.027344 50.542969 L 58.03125 50.542969 Z M 58.03125 55.742188 "/>
<path style=" stroke:none;fill-rule:nonzero;fill:rgb(0%,0%,0%);fill-opacity:1;" d="M 64.480469 55.742188 L 64.480469 60.945312 L 65.9375 60.945312 L 65.9375 56.574219 L 66.539062 56.574219 C 67.515625 56.574219 67.808594 57.199219 67.808594 59.21875 L 67.808594 60.945312 L 69.367188 60.945312 L 69.304688 59.320312 C 69.222656 57.035156 69.097656 56.390625 68.640625 56.117188 C 68.246094 55.867188 68.246094 55.847656 68.679688 55.371094 C 69.035156 55.015625 69.160156 54.578125 69.222656 53.601562 C 69.367188 51.210938 68.660156 50.542969 65.9375 50.542969 L 64.480469 50.542969 Z M 67.390625 52.207031 C 67.601562 52.332031 67.703125 52.75 67.703125 53.558594 C 67.703125 54.828125 67.496094 55.121094 66.519531 55.121094 L 65.9375 55.121094 L 65.9375 52 L 66.519531 52 C 66.832031 52 67.226562 52.105469 67.390625 52.207031 Z M 67.390625 52.207031 "/>
<path style=" stroke:none;fill-rule:nonzero;fill:rgb(0%,0%,0%);fill-opacity:1;" d="M 70.511719 55.742188 L 70.511719 60.945312 L 71.96875 60.945312 L 71.96875 50.542969 L 70.511719 50.542969 Z M 70.511719 55.742188 "/>
<path style=" stroke:none;fill-rule:nonzero;fill:rgb(0%,0%,0%);fill-opacity:1;" d="M 79.246094 54.953125 C 79.246094 58.074219 79.332031 59.53125 79.519531 59.902344 C 80.164062 61.195312 82.328125 61.484375 83.386719 60.445312 L 83.929688 59.902344 L 84.054688 50.542969 L 82.574219 50.542969 L 82.574219 54.890625 C 82.574219 59.46875 82.492188 59.839844 81.597656 59.65625 C 80.847656 59.507812 80.703125 58.71875 80.703125 54.539062 L 80.703125 50.542969 L 79.246094 50.542969 Z M 79.246094 54.953125 "/>
<path style=" stroke:none;fill-rule:nonzero;fill:rgb(0%,0%,0%);fill-opacity:1;" d="M 85.28125 55.742188 L 85.28125 60.945312 L 89.648438 60.945312 L 89.648438 59.488281 L 86.945312 59.488281 L 86.945312 56.367188 L 89.023438 56.367188 L 89.023438 54.910156 L 86.945312 54.910156 L 86.945312 52 L 89.648438 52 L 89.648438 50.542969 L 85.28125 50.542969 Z M 85.28125 55.742188 "/>
</g>
</svg>
