
<svg width="104" height="38" viewBox="0 0 104 38" fill="none"  xmlns="http://www.w3.org/2000/svg"
 >

<g transform="translate(0.000000,500.000000) scale(0.100000,-0.100000)"
fill="#000000" stroke="none">
<path d="M1868 2564 c-51 -27 -58 -56 -58 -244 0 -189 7 -218 60 -245 60 -31
137 -10 165 45 22 42 22 358 0 400 -28 55 -109 76 -167 44z m91 -68 c8 -9 11
-66 9 -181 -3 -147 -5 -169 -20 -179 -13 -8 -23 -8 -35 0 -16 10 -18 32 -21
179 -3 173 2 195 38 195 10 0 23 -6 29 -14z"/>
<path d="M3584 2570 c-12 -4 -31 -21 -43 -36 -20 -25 -21 -38 -21 -215 l0
-189 29 -32 c27 -30 35 -33 88 -34 32 0 68 -6 80 -12 39 -21 53 -15 53 22 0
21 -6 36 -15 40 -12 4 -13 11 -5 31 13 35 13 310 -1 358 -17 62 -97 95 -165
67z m80 -76 c13 -13 16 -43 16 -174 0 -131 -3 -161 -16 -174 -19 -19 -36 -20
-52 -4 -17 17 -17 339 0 356 16 16 33 15 52 -4z"/>
<path d="M690 2320 l0 -250 40 0 40 0 0 95 0 95 45 0 c35 0 52 6 76 28 30 27
32 34 36 108 3 62 0 86 -14 114 -25 47 -55 60 -145 60 l-78 0 0 -250z m148
168 c7 -7 12 -39 12 -73 0 -68 -10 -85 -52 -85 l-28 0 0 85 0 85 28 0 c15 0
33 -5 40 -12z"/>
<path d="M970 2320 l0 -250 105 0 105 0 0 35 0 35 -65 0 -65 0 0 75 0 75 50 0
50 0 0 35 0 35 -50 0 -50 0 0 70 0 70 65 0 65 0 0 35 0 35 -105 0 -105 0 0
-250z"/>
<path d="M1230 2320 l0 -250 80 0 c150 0 160 15 160 249 0 111 -4 179 -12 196
-18 41 -57 55 -148 55 l-80 0 0 -250z m150 170 c12 -8 15 -38 15 -170 0 -175
-2 -180 -57 -180 l-28 0 0 180 0 180 28 0 c15 0 34 -5 42 -10z"/>
<path d="M1530 2321 l0 -251 40 0 40 0 0 105 c0 112 4 120 51 95 16 -9 19 -22
19 -74 0 -35 3 -78 6 -95 6 -28 10 -31 43 -31 l37 0 -4 98 c-3 76 -8 103 -23
125 -20 27 -20 28 0 54 32 40 30 152 -3 190 -23 26 -30 28 -115 31 l-91 4 0
-251z m138 167 c7 -7 12 -35 12 -63 0 -56 -12 -75 -47 -75 -22 0 -23 3 -23 75
0 72 1 75 23 75 13 0 28 -5 35 -12z"/>
<path d="M2210 2320 l0 -250 40 0 40 0 0 105 0 105 45 0 45 0 0 -105 0 -105
40 0 40 0 0 250 0 250 -40 0 -40 0 0 -110 0 -110 -45 0 -45 0 0 110 0 110 -40
0 -40 0 0 -250z"/>
<path d="M2520 2320 l0 -250 110 0 110 0 0 35 0 35 -70 0 -70 0 0 75 0 75 55
0 55 0 0 35 0 35 -55 0 -55 0 0 70 0 70 70 0 70 0 0 35 0 35 -110 0 -110 0 0
-250z"/>
<path d="M2790 2320 l0 -250 35 0 35 0 1 178 0 177 48 -175 48 -175 41 -3 42
-3 0 250 0 251 -35 0 -34 0 -3 -147 -3 -146 -39 146 -39 147 -48 0 -49 0 0
-250z"/>
<path d="M3100 2321 l0 -251 40 0 40 0 0 105 c0 112 4 120 51 95 16 -9 19 -22
19 -74 0 -35 3 -78 6 -95 6 -28 10 -31 43 -31 l37 0 -4 98 c-3 76 -8 103 -23
125 -20 27 -20 28 0 54 32 40 30 152 -3 190 -23 26 -30 28 -115 31 l-91 4 0
-251z m138 167 c16 -16 16 -110 0 -126 -7 -7 -22 -12 -35 -12 -22 0 -23 3 -23
75 0 72 1 75 23 75 13 0 28 -5 35 -12z"/>
<path d="M3390 2320 l0 -250 40 0 40 0 0 250 0 250 -40 0 -40 0 0 -250z"/>
<path d="M3810 2350 l0 -220 28 -30 c50 -57 162 -47 191 16 7 16 11 100 11
239 l0 215 -35 0 -35 0 0 -204 c0 -173 -2 -207 -16 -220 -8 -9 -21 -16 -28
-16 -32 0 -36 23 -36 232 l0 208 -40 0 -40 0 0 -220z"/>
<path d="M4100 2320 l0 -250 105 0 105 0 0 35 0 35 -65 0 -65 0 0 75 0 75 55
0 55 0 0 35 0 35 -55 0 -55 0 0 70 0 70 65 0 65 0 0 35 0 35 -105 0 -105 0 0
-250z"/>
</g>
</svg>
